<?xml version="1.0" encoding="UTF-8" standalone="no"?>
<!-- Created with Inkscape (http://www.inkscape.org/) -->

<svg
   xmlns:dc="http://purl.org/dc/elements/1.1/"
   xmlns:cc="http://creativecommons.org/ns#"
   xmlns:rdf="http://www.w3.org/1999/02/22-rdf-syntax-ns#"
   xmlns:svg="http://www.w3.org/2000/svg"
   xmlns="http://www.w3.org/2000/svg"
   xmlns:sodipodi="http://sodipodi.sourceforge.net/DTD/sodipodi-0.dtd"
   xmlns:inkscape="http://www.inkscape.org/namespaces/inkscape"
   id="svg2816"
   version="1.1"
   inkscape:version="0.47 r22583"
   width="299"
   height="84"
   sodipodi:docname="Taylorswiftlogo.png">
  <metadata
     id="metadata2822">
    <rdf:RDF>
      <cc:Work
         rdf:about="">
        <dc:format>image/svg+xml</dc:format>
        <dc:type
           rdf:resource="http://purl.org/dc/dcmitype/StillImage" />
        <dc:title></dc:title>
      </cc:Work>
    </rdf:RDF>
  </metadata>
  <defs
     id="defs2820">
    <inkscape:perspective
       sodipodi:type="inkscape:persp3d"
       inkscape:vp_x="0 : 0.5 : 1"
       inkscape:vp_y="0 : 1000 : 0"
       inkscape:vp_z="1 : 0.5 : 1"
       inkscape:persp3d-origin="0.5 : 0.33333333 : 1"
       id="perspective2824" />
  </defs>
  <sodipodi:namedview
     pagecolor="#ffffff"
     bordercolor="#666666"
     borderopacity="1"
     objecttolerance="10"
     gridtolerance="10"
     guidetolerance="10"
     inkscape:pageopacity="0"
     inkscape:pageshadow="2"
     inkscape:window-width="640"
     inkscape:window-height="483"
     id="namedview2818"
     showgrid="false"
     inkscape:zoom="1.8060201"
     inkscape:cx="149.5"
     inkscape:cy="42"
     inkscape:window-x="390"
     inkscape:window-y="136"
     inkscape:window-maximized="0"
     inkscape:current-layer="svg2816" />
  <path
     style="fill:#000000"
     d="m 68.451324,79.281294 c -5.429245,-3.16516 -1.703029,-16.06803 7.372032,-25.527337 3.618655,-3.771872 5.837755,-6.948606 5.837755,-8.356989 0,-1.423542 -0.466821,-2.081201 -1.25,-1.761003 -0.6875,0.28108 -2.0375,0.82737 -3,1.213978 -1.023627,0.41116 -1.75,0.252343 -1.75,-0.382627 0,-0.775601 -0.691957,-0.770274 -2.423474,0.01866 -1.508752,0.687434 -3.867766,0.804118 -6.25,0.309144 -2.104589,-0.437287 -5.626526,-0.831328 -7.826526,-0.875649 -3.241585,-0.0653 -4.055747,-0.470252 -4.29402,-2.135758 -0.415578,-2.904848 3.108463,-5.692077 7.369525,-5.828693 3.289022,-0.105451 3.728058,0.204666 4.773337,3.371687 1.237229,3.748602 4.272725,5.180743 6.085061,2.870922 0.628981,-0.801637 3.26721,-1.422436 6.434469,-1.514089 4.503685,-0.130327 5.448222,0.150002 5.864123,1.740409 0.376917,1.441333 1.127586,1.77269 3.131628,1.382348 2.357613,-0.45921 2.409152,-0.412811 0.488204,0.439513 -3.198756,1.419289 -3.605942,2.57856 -4.459655,12.69677 -1.446897,17.148624 -8.417537,26.818894 -16.102459,22.338714 z m 6.901798,-2.19241 c 2.864444,-3.15832 5.208727,-10.04957 6.208332,-18.249996 1.211246,-9.936672 0.291043,-10.729 -4.798652,-4.131811 -6.672481,8.648777 -9.582628,17.996137 -7.066507,22.697557 1.361776,2.5445 3.153424,2.4445 5.656827,-0.31575 z M 62.454441,40.298211 c 1.68082,-2.69142 0.67449,-4.28006 -1.854018,-2.926844 -2.145951,1.148478 -2.668628,4.967521 -0.679859,4.967521 0.692699,0 1.832944,-0.918305 2.533877,-2.040677 z M 237.56798,64.016694 c -6.83918,-8.381224 -7.26447,-11.00108 -1.97444,-12.162965 2.39714,-0.526501 3.06757,-1.20491 3.06757,-3.104084 0,-1.336682 -0.88081,-3.184503 -1.95735,-4.106267 -1.94313,-1.663763 -1.94313,-1.685893 0,-3.046917 1.98752,-1.392116 2.55213,-4.773654 1.16216,-6.960421 -0.42051,-0.661567 -3.67612,-1.562136 -7.23469,-2.001265 -3.74375,-0.461982 -6.25943,-1.219261 -5.97012,-1.797152 0.275,-0.549304 1.4,-0.859237 2.5,-0.68874 8.487,1.315463 10.50552,1.322911 10.87875,0.04014 0.21606,-0.742574 0.89044,-3.189705 1.49863,-5.438069 1.26405,-4.672983 7.27011,-11.412066 10.17076,-11.412066 1.60963,0 1.95186,0.699462 1.95186,3.989273 0,2.194101 -0.86691,6.270798 -1.92647,9.059327 l -1.92647,5.070054 2.55369,-0.309327 c 1.98302,-0.240202 2.94129,-1.304632 4.28816,-4.763223 2.0258,-5.202006 4.71137,-7.017445 3.58947,-2.426481 -1.92949,7.895801 -3.99473,6.990258 17.50809,7.676752 10.573,0.337552 19.58233,0.971456 20.02073,1.408677 0.43839,0.437222 -7.90613,0.664342 -18.54339,0.504712 -21.28968,-0.319486 -22.56381,0.0028 -22.56381,5.706677 0,4.902756 4.63463,7.419832 9.18144,4.986453 1.59418,-0.853179 1.95417,-0.809717 1.6191,0.19548 -0.55929,1.67788 -5.55931,3.000275 -8.52744,2.255322 -3.34122,-0.838592 -5.2731,-4.163802 -5.2731,-9.076202 0,-3.800835 -0.25713,-4.277494 -2.3075,-4.277494 -1.60742,0 -3.29639,1.402948 -5.56692,4.624175 -2.73925,3.886208 -3.16085,5.207575 -2.6418,8.279824 l 0.61762,3.655649 7.1993,-0.208492 7.1993,-0.208491 -7,1.192107 -7,1.192107 0.35318,7.736561 c 0.40325,8.833406 -0.60561,9.733766 -4.94631,4.414366 z m 1.60451,-7.610422 c -0.71489,-4.231425 -0.88111,-4.374197 -3.764,-3.233093 -1.60035,0.633446 -1.52746,1.025085 0.83889,4.507485 1.42534,2.09757 2.8212,3.58409 3.10191,3.303378 0.28071,-0.280712 0.20115,-2.340708 -0.1768,-4.57777 z m 4.48862,-21.067384 c 0.85431,-1.596299 0.76049,-2 -0.46482,-2 -0.86851,0 -1.53518,0.868517 -1.53518,2 0,1.1 0.20917,2 0.46482,2 0.25565,0 0.94648,-0.9 1.53518,-2 z m 3.95765,-10.857813 c 2.24166,-7.527063 2.45661,-9.142187 1.21666,-9.142187 -1.7047,0 -5.02138,4.642241 -6.07288,8.5 -1.58918,5.830384 -1.39857,7.5 0.85622,7.5 1.55469,0 2.37806,-1.41162 4,-6.857813 z m -76.94879,27.567954 c -5.08323,-2.571824 -3.27311,-7.357499 2.38163,-6.296662 4.02081,0.754308 5.06052,3.545644 1.35951,3.649907 l -2.25,0.06339 2.25996,0.908075 c 2.81502,1.131099 7.24004,-0.40304 7.24004,-2.5101 0,-2.365319 -3.133,-4.960102 -10.94645,-9.065954 -9.16578,-4.816478 -12.71907,-8.15896 -13.58597,-12.779931 -1.04172,-5.552855 2.69884,-12.354146 8.86478,-16.1184186 9.34689,-5.706221 23.09396,-3.438067 27.19188,4.4864356 2.48163,4.798926 1.73127,11.953117 -1.25367,11.953117 -1.24765,0 -1.29081,-0.270689 -0.24423,-1.531732 1.00359,-1.209256 1.02257,-2.361643 0.0902,-5.473721 -2.69259,-8.987082 -14.04964,-12.5958166 -23.91208,-7.598138 -7.26266,3.680268 -9.78005,9.05137 -7.0503,15.042515 1.3154,2.887007 2.87865,4.020683 12.47212,9.044839 3.78056,1.979903 7.66125,4.53087 8.62375,5.668814 5.63622,6.663594 -2.96711,14.743751 -11.24114,10.557564 z M 26.309094,47.088888 C 24.780372,34.361636 26.07929,22.243235 28.792457,23.920065 c 0.797354,0.492791 0.935686,3.596754 0.464916,10.432009 -0.460911,6.692102 -0.300473,10.541893 0.513803,12.329036 0.927749,2.036187 0.909249,2.92958 -0.08549,4.128164 -2.07864,2.504611 -2.712811,1.805872 -3.376592,-3.720386 z M 130.66111,45.21108 c 0,-3.115812 -0.0163,-3.125297 -4.25,-2.473073 -2.3375,0.360105 -7.05363,1.647914 -10.4803,2.861799 -5.99386,2.123309 -6.29745,2.138873 -8,0.410155 -1.69494,-1.721003 -1.65118,-1.899857 1.03606,-4.233991 3.17845,-2.760797 6.85208,-3.156748 8.69424,-0.937082 0.68469,0.825 2.76479,1.5 4.62244,1.5 2.91429,0 3.37756,-0.33481 3.37756,-2.440983 0,-2.907562 1.76336,-4.339268 2.61405,-2.122399 0.32996,0.85986 1.45178,1.563382 2.49294,1.563382 1.44103,0 1.89301,0.723776 1.89301,3.031385 0,1.766895 0.6233,3.270569 1.49426,3.604785 1.96965,0.755825 0.91303,2.36383 -1.55328,2.36383 -1.5076,0 -1.94098,-0.698368 -1.94098,-3.127808 z M 115.1301,44.389061 c 0.63866,-1.033369 -3.29885,-3.553646 -4.17817,-2.674321 -0.29585,0.29584 -0.27143,1.232299 0.0543,2.08102 0.65575,1.708859 3.20756,2.075985 4.12391,0.593301 z M 95.969408,45.329292 C 88.582873,42.353975 87.185933,25.56096 93.257363,12.727011 c 2.48729,-5.2576976 6.432515,-9.3881226 8.967177,-9.3881226 0.71154,0 2.0411,0.747383 2.95456,1.660852 3.22928,3.229275 -0.97127,17.6635076 -7.978852,27.4175606 -1.946527,2.709419 -3.539137,5.395629 -3.539137,5.969356 0,2.269509 4.958097,5.952231 8.013559,5.952231 1.81501,0 2.84777,0.415358 2.48644,1 -0.74746,1.209408 -5.178282,1.204217 -8.191702,-0.0096 z m 3.43691,-20.797653 C 102.69075,17.42791 104.53883,6.8074954 102.78913,5.0915464 99.511758,1.8773954 92.618935,18.428597 92.691213,29.338888 l 0.03644,5.5 2.112425,-2.5 c 1.161834,-1.375 3.21665,-4.888262 4.56625,-7.807249 z m 96.254792,18.807249 c -2.09101,-2.091011 -2.69328,-5 -1.03518,-5 0.53065,0 1.44648,0.9 2.03518,2 1.37544,2.570027 2.81119,2.526008 5.68555,-0.174314 l 2.31445,-2.174314 2.41451,2.268314 2.41451,2.268313 1.10519,-2.06506 c 0.84007,-1.569689 1.76013,-1.935584 3.83549,-1.52531 2.17899,0.430762 2.93222,0.07273 3.7303,-1.773098 1.38719,-3.208349 4.3862,-3.698406 3.81217,-0.622931 -0.68171,3.652373 1.89316,6.094124 7.31352,6.935417 4.52174,0.70182 4.4169,0.7306 -1.44957,0.397891 -3.94194,-0.223562 -6.98486,-0.956832 -8.07874,-1.946779 -2.38143,-2.155169 -3.35247,-2.009949 -6.09738,0.911871 -2.72633,2.902041 -3.71943,3.06389 -6.02075,0.981219 -1.4989,-1.356483 -1.98819,-1.357141 -4.57874,-0.0062 -3.82247,1.993465 -5.00814,1.917354 -7.40051,-0.475019 z M 4.1072604,24.251756 c -1.0992559,-1.778634 0.5112542,-2.474607 12.0802336,-5.220412 14.760169,-3.503209 28.16235,-5.56093 38.473617,-5.907097 12.324582,-0.413757 11.900166,1.5663 -0.5,2.332684 -11.628013,0.718662 -28.518293,3.795672 -40.46745,7.372214 -9.8030774,2.934193 -8.7488781,2.777751 -9.5864006,1.422611 z M 223.66111,18.461333 c 0,-1.752333 2.64026,-4.885339 3.38349,-4.014946 0.18434,0.215876 0.63203,1.630001 0.99489,3.142501 0.58699,2.44681 0.382,2.75 -1.85933,2.75 -1.79762,0 -2.51905,-0.53771 -2.51905,-1.877555 z"
     id="path2828" />
</svg>
